<?xml version="1.0" encoding="UTF-8" standalone="no"?>
<svg
   xmlns:dc="http://purl.org/dc/elements/1.1/"
   xmlns:cc="http://creativecommons.org/ns#"
   xmlns:rdf="http://www.w3.org/1999/02/22-rdf-syntax-ns#"
   xmlns:svg="http://www.w3.org/2000/svg"
   xmlns="http://www.w3.org/2000/svg"
   xmlns:xlink="http://www.w3.org/1999/xlink"
   xmlns:sodipodi="http://sodipodi.sourceforge.net/DTD/sodipodi-0.dtd"
   xmlns:inkscape="http://www.inkscape.org/namespaces/inkscape"
   sodipodi:docname="dessin.svg"
   inkscape:version="1.0 (4035a4fb49, 2020-05-01)"
   id="svg58"
   version="1.1"
   viewBox="0 0 13.229 52.916"
   height="200"
   width="50">
  <defs
     id="defs52">
    <linearGradient
       id="linearGradient104"
       inkscape:collect="always">
      <stop
         id="stop100"
         offset="0"
         style="stop-color:#006680;stop-opacity:1" />
      <stop
         id="stop102"
         offset="1"
         style="stop-color:#00aad4;stop-opacity:1" />
    </linearGradient>
    <linearGradient
       gradientUnits="userSpaceOnUse"
       y2="205.71428"
       x2="66.071426"
       y1="4.2857141"
       x1="-6.7857141"
       id="linearGradient106"
       xlink:href="#linearGradient104"
       inkscape:collect="always" />
  </defs>
  <sodipodi:namedview
     inkscape:window-maximized="1"
     inkscape:window-y="-8"
     inkscape:window-x="-8"
     inkscape:window-height="1017"
     inkscape:window-width="1920"
     inkscape:snap-to-guides="true"
     inkscape:snap-grids="true"
     inkscape:guide-bbox="true"
     showguides="true"
     units="px"
     showgrid="false"
     inkscape:document-rotation="0"
     inkscape:current-layer="layer1"
     inkscape:document-units="px"
     inkscape:cy="82.901572"
     inkscape:cx="6.4608804"
     inkscape:zoom="2.8"
     inkscape:pageshadow="2"
     inkscape:pageopacity="0.0"
     borderopacity="1.0"
     bordercolor="#666666"
     pagecolor="#ffffff"
     id="base">
    <sodipodi:guide
       inkscape:color="rgb(0,0,255)"
       inkscape:locked="false"
       inkscape:label=""
       id="guide62"
       orientation="-1,0"
       position="6.6145,26.458" />
  </sodipodi:namedview>
  <metadata
     id="metadata55">
    <rdf:RDF>
      <cc:Work
         rdf:about="">
        <dc:format>image/svg+xml</dc:format>
        <dc:type
           rdf:resource="http://purl.org/dc/dcmitype/StillImage" />
        <dc:title></dc:title>
      </cc:Work>
    </rdf:RDF>
  </metadata>
  <g
     id="layer1"
     inkscape:groupmode="layer"
     inkscape:label="Calque 1">
    <path
       transform="scale(0.26458)"
       d="M 25 10 A 20.000001 20.000001 0 0 0 5 30 A 20.000001 20.000001 0 0 0 25 50 A 20.000001 20.000001 0 0 0 45 30 A 20.000001 20.000001 0 0 0 25 10 z M 25 80 A 20.000003 20.000003 0 0 0 5 100 A 20.000003 20.000003 0 0 0 25 120 A 20.000003 20.000003 0 0 0 45 100 A 20.000003 20.000003 0 0 0 25 80 z M 25 150 A 20.000003 20.000003 0 0 0 5 170 A 20.000003 20.000003 0 0 0 25 190 A 20.000003 20.000003 0 0 0 45 170 A 20.000003 20.000003 0 0 0 25 150 z "
       style="fill:url(#linearGradient106);stroke-width:1;fill-opacity:1"
       id="path64" />
  </g>
</svg>
